<?xml version="1.0" standalone="no"?>
<!DOCTYPE svg PUBLIC "-//W3C//DTD SVG 20010904//EN"
 "http://www.w3.org/TR/2001/REC-SVG-20010904/DTD/svg10.dtd">
<svg version="1.0" xmlns="http://www.w3.org/2000/svg"
 width="350.000000pt" height="350.000000pt" viewBox="0 0 350.000000 350.000000"
 preserveAspectRatio="xMidYMid meet">
<metadata>
Created by potrace 1.13, written by Peter Selinger 2001-2015
</metadata>
<g transform="translate(0.000000,350.000000) scale(0.100000,-0.100000)"
fill="#000000" stroke="none">
<path d="M0 2625 l0 -875 875 0 875 0 0 -875 0 -875 875 0 875 0 0 875 0 875
-875 0 -875 0 0 875 0 875 -875 0 -875 0 0 -875z m906 449 c58 -29 115 -97
139 -163 26 -76 38 -210 25 -302 -26 -190 -108 -310 -242 -355 -56 -18 -221
-16 -270 4 -27 11 -28 14 -28 86 l0 74 53 -20 c72 -28 170 -22 221 12 44 30
82 105 89 173 l5 49 -27 -26 c-62 -59 -160 -72 -247 -32 -89 41 -134 122 -134
238 1 122 51 207 151 257 53 26 73 31 138 31 62 0 85 -5 127 -26z m1804 -1768
c49 -25 79 -55 102 -99 60 -118 15 -266 -110 -364 -27 -21 -81 -63 -120 -93
-69 -53 -108 -101 -95 -114 3 -3 84 -6 180 -6 l173 0 0 -75 0 -75 -280 0 -280
0 0 60 c0 121 72 233 216 336 70 50 130 113 144 150 40 104 -34 177 -155 155
-61 -11 -84 -21 -132 -58 l-33 -24 0 84 0 84 58 26 c75 33 90 36 202 33 69 -2
105 -7 130 -20z"/>
<path d="M722 2944 c-34 -24 -52 -68 -52 -128 0 -48 4 -60 31 -91 27 -30 37
-35 76 -35 36 0 50 6 73 29 36 35 44 67 35 128 -13 89 -100 141 -163 97z"/>
<path d="M2520 3043 c-14 -2 -51 -16 -82 -30 l-58 -26 0 -84 0 -84 33 24 c48
37 71 47 132 58 121 22 195 -51 155 -155 -14 -37 -74 -100 -144 -150 -144
-103 -216 -215 -216 -336 l0 -60 280 0 280 0 0 75 0 75 -173 0 c-96 0 -177 3
-180 6 -13 13 26 61 95 114 39 30 93 72 120 93 178 139 182 373 8 463 -35 18
-192 29 -250 17z"/>
<path d="M711 1309 c-100 -50 -150 -135 -151 -257 0 -116 45 -197 134 -238 87
-40 185 -27 247 32 l27 26 -5 -49 c-7 -68 -45 -143 -89 -173 -51 -34 -149 -40
-221 -12 l-53 20 0 -74 c0 -72 1 -75 28 -86 49 -20 214 -22 270 -4 174 58 273
273 243 526 -14 110 -31 160 -77 221 -53 69 -118 99 -215 99 -65 0 -85 -5
-138 -31z m204 -142 c24 -24 35 -46 40 -80 9 -61 1 -93 -35 -128 -23 -23 -37
-29 -73 -29 -39 0 -49 5 -76 35 -27 31 -31 43 -31 91 0 128 97 189 175 111z"/>
</g>
</svg>
